<svg width="631" height="648" viewBox="0 0 631 648" fill="none" xmlns="http://www.w3.org/2000/svg">
<path d="M536 106C565.271 106 589 82.2711 589 53C589 23.7289 565.271 0 536 0C506.729 0 483 23.7289 483 53C483 82.2711 506.729 106 536 106Z" fill="#F2F2F2"/>
<path d="M536 14C537.657 14 539 12.6569 539 11C539 9.34315 537.657 8 536 8C534.343 8 533 9.34315 533 11C533 12.6569 534.343 14 536 14Z" fill="black" fill-opacity="0.1"/>
<path d="M494 56C495.657 56 497 54.6569 497 53C497 51.3431 495.657 50 494 50C492.343 50 491 51.3431 491 53C491 54.6569 492.343 56 494 56Z" fill="black" fill-opacity="0.1"/>
<path d="M578 56C579.657 56 581 54.6569 581 53C581 51.3431 579.657 50 578 50C576.343 50 575 51.3431 575 53C575 54.6569 576.343 56 578 56Z" fill="black" fill-opacity="0.1"/>
<path d="M536 98C537.657 98 539 96.6569 539 95C539 93.3431 537.657 92 536 92C534.343 92 533 93.3431 533 95C533 96.6569 534.343 98 536 98Z" fill="black" fill-opacity="0.1"/>
<path fill-rule="evenodd" clip-rule="evenodd" d="M536 17L538 52H534L536 17Z" fill="#B3B3B3"/>
<path fill-rule="evenodd" clip-rule="evenodd" d="M553.698 70.6985L535.314 55.1421L538.142 52.3137L553.698 70.6985Z" fill="#B3B3B3"/>
<path d="M536 57C538.209 57 540 55.2091 540 53C540 50.7909 538.209 49 536 49C533.791 49 532 50.7909 532 53C532 55.2091 533.791 57 536 57Z" fill="#B3B3B3"/>
<path d="M631 352.664H365.767V360.513H631V352.664Z" fill="#E6E6E6"/>
<path d="M454.886 287.021H387.693V354.805H454.886V287.021Z" fill="#E6E6E6"/>
<path d="M441.447 300.578H401.132V341.248H441.447V300.578Z" fill="#CCCCCC"/>
<path d="M555.32 287.021H538.345V354.805H555.32V287.021Z" fill="#E6E6E6"/>
<path d="M555.32 297.723H538.345V305.572H555.32V297.723Z" fill="#CCCCCC"/>
<path d="M555.32 331.972H538.345V339.821H555.32V331.972Z" fill="#CCCCCC"/>
<path d="M529.151 287.021H512.176V354.805H529.151V287.021Z" fill="#E6E6E6"/>
<path d="M529.151 297.723H512.176V305.572H529.151V297.723Z" fill="#CCCCCC"/>
<path d="M529.151 331.972H512.176V339.821H529.151V331.972Z" fill="#CCCCCC"/>
<path d="M569.946 286.741L554.734 294.338L584.546 355.085L599.759 347.487L569.946 286.741Z" fill="#E6E6E6"/>
<path d="M574.653 296.332L559.441 303.93L562.893 310.964L578.105 303.366L574.653 296.332Z" fill="#CCCCCC"/>
<path d="M589.717 327.025L574.504 334.623L577.956 341.657L593.169 334.059L589.717 327.025Z" fill="#CCCCCC"/>
<path d="M412.802 314.229L421.351 329.166L429.899 344.102H412.802H395.706L404.254 329.166L412.802 314.229Z" fill="#E6E6E6"/>
<path d="M427.655 317.083L436.203 332.02L444.752 346.956H427.655H410.559L419.107 332.02L427.655 317.083Z" fill="#E6E6E6"/>
<path d="M433.667 312.707C436.401 312.707 438.618 310.471 438.618 307.713C438.618 304.954 436.401 302.718 433.667 302.718C430.933 302.718 428.716 304.954 428.716 307.713C428.716 310.471 430.933 312.707 433.667 312.707Z" fill="#E6E6E6"/>
<path d="M365.767 252.772L631 252.772V244.924L365.767 244.924V252.772Z" fill="#E6E6E6"/>
<path d="M541.882 247.064H609.074V179.28H541.882V247.064Z" fill="#E6E6E6"/>
<path d="M555.32 233.507H595.636V192.837H555.32V233.507Z" fill="#CCCCCC"/>
<path d="M441.447 247.064H458.422V179.28H441.447V247.064Z" fill="#E6E6E6"/>
<path d="M441.447 197.832H458.422V189.983H441.447V197.832Z" fill="#CCCCCC"/>
<path d="M441.447 232.08H458.422V224.232H441.447V232.08Z" fill="#CCCCCC"/>
<path d="M467.617 247.064H484.592V179.28H467.617V247.064Z" fill="#E6E6E6"/>
<path d="M467.617 197.832H484.592V189.983H467.617V197.832Z" fill="#CCCCCC"/>
<path d="M467.617 232.08H484.592V224.232H467.617V232.08Z" fill="#CCCCCC"/>
<path d="M397.009 239.746L412.221 247.344L442.034 186.598L426.821 179L397.009 239.746Z" fill="#E6E6E6"/>
<path d="M418.662 195.625L433.875 203.223L437.326 196.189L422.114 188.592L418.662 195.625Z" fill="#CCCCCC"/>
<path d="M403.599 226.318L418.811 233.916L422.263 226.882L407.051 219.285L403.599 226.318Z" fill="#CCCCCC"/>
<path d="M583.965 206.488L575.417 221.425L566.869 236.361H583.965H601.062L592.513 221.425L583.965 206.488Z" fill="#E6E6E6"/>
<path d="M569.112 209.342L560.564 224.279L552.016 239.215H569.112H586.209L577.661 224.279L569.112 209.342Z" fill="#E6E6E6"/>
<path d="M563.1 204.967C565.835 204.967 568.051 202.731 568.051 199.972C568.051 197.214 565.835 194.978 563.1 194.978C560.366 194.978 558.149 197.214 558.149 199.972C558.149 202.731 560.366 204.967 563.1 204.967Z" fill="#E6E6E6"/>
<path d="M365.767 468.253L631 468.253V460.404L365.767 460.404V468.253Z" fill="#E6E6E6"/>
<path d="M541.882 462.545H609.074V394.761H541.882V462.545Z" fill="#E6E6E6"/>
<path d="M555.32 448.988H595.636V408.318H555.32V448.988Z" fill="#CCCCCC"/>
<path d="M441.447 462.545H458.422V394.761H441.447V462.545Z" fill="#E6E6E6"/>
<path d="M441.447 413.313H458.422V405.464H441.447V413.313Z" fill="#CCCCCC"/>
<path d="M441.447 447.561H458.422V439.713H441.447V447.561Z" fill="#CCCCCC"/>
<path d="M467.617 462.545H484.592V394.761H467.617V462.545Z" fill="#E6E6E6"/>
<path d="M467.617 413.313H484.592V405.464H467.617V413.313Z" fill="#CCCCCC"/>
<path d="M467.617 447.561H484.592V439.713H467.617V447.561Z" fill="#CCCCCC"/>
<path d="M397.009 455.227L412.221 462.825L442.034 402.079L426.821 394.481L397.009 455.227Z" fill="#E6E6E6"/>
<path d="M418.662 411.106L433.875 418.704L437.327 411.67L422.114 404.073L418.662 411.106Z" fill="#CCCCCC"/>
<path d="M403.599 441.799L418.811 449.397L422.263 442.363L407.051 434.765L403.599 441.799Z" fill="#CCCCCC"/>
<path d="M583.965 421.969L575.417 436.906L566.869 451.843H583.965H601.062L592.513 436.906L583.965 421.969Z" fill="#E6E6E6"/>
<path d="M569.112 424.823L560.564 439.76L552.016 454.697H569.112H586.209L577.661 439.76L569.112 424.823Z" fill="#E6E6E6"/>
<path d="M563.1 420.448C565.835 420.448 568.051 418.212 568.051 415.453C568.051 412.695 565.835 410.459 563.1 410.459C560.366 410.459 558.149 412.695 558.149 415.453C558.149 418.212 560.366 420.448 563.1 420.448Z" fill="#E6E6E6"/>
<path d="M312.444 648C485.002 648 624.888 637.977 624.888 625.614C624.888 613.251 485.002 603.228 312.444 603.228C139.886 603.228 0 613.251 0 625.614C0 637.977 139.886 648 312.444 648Z" fill="#E6E6E6"/>
<path d="M556.541 638.15C505.595 629.003 449.883 630.523 391.443 638.15C418.079 615.466 441.067 592.781 414.431 570.097C466.388 580.91 473.666 579.815 531.463 570.097C518.057 592.781 543.135 615.466 556.541 638.15Z" fill="#5B86E5"/>
<path opacity="0.2" d="M556.541 638.15C505.595 629.003 449.883 630.523 391.443 638.15C418.079 615.466 441.067 592.781 414.431 570.097C466.388 580.91 473.666 579.815 531.463 570.097C518.057 592.781 543.135 615.466 556.541 638.15Z" fill="black"/>
<path d="M544.114 628.472C500.837 621.171 453.512 622.384 403.87 628.472C426.496 610.365 446.024 592.258 423.397 574.151C467.533 582.782 473.715 581.908 522.811 574.151C511.424 592.258 532.727 610.365 544.114 628.472Z" fill="#5B86E5"/>
<path d="M527.631 599.297C540.366 599.297 550.69 588.882 550.69 576.035C550.69 563.188 540.366 552.773 527.631 552.773C514.896 552.773 504.572 563.188 504.572 576.035C504.572 588.882 514.896 599.297 527.631 599.297Z" fill="#2F2E41"/>
<path d="M422.953 549.054L438.931 551.74L446.919 575.021L423.841 589.349L397.212 549.054H422.066H422.953Z" fill="#A0616A"/>
<path d="M468.222 584.872C488.812 584.872 505.503 568.034 505.503 547.263C505.503 526.492 488.812 509.655 468.222 509.655C447.633 509.655 430.942 526.492 430.942 547.263C430.942 568.034 447.633 584.872 468.222 584.872Z" fill="#A0616A"/>
<path d="M262.293 410.261C262.293 410.261 171.756 420.111 155.778 418.32C139.801 416.529 132.7 414.738 132.7 414.738C132.7 414.738 122.049 429.065 127.374 435.333C130.357 438.945 133.966 441.979 138.026 444.288C138.026 444.288 147.79 441.601 154.891 444.288C161.992 446.974 233.889 458.615 246.316 447.869C258.743 437.124 262.293 410.261 262.293 410.261Z" fill="#2F2E41"/>
<path d="M268.507 609.944C268.507 609.944 209.036 592.93 198.384 517.713V510.55C198.384 510.55 186.617 531.375 182.407 535.622C177.525 540.547 160.216 584.871 161.104 589.349C161.992 593.826 161.104 595.617 161.104 595.617L135.363 592.93V584.871C135.363 584.871 149.121 543.234 150.009 533.384C150.896 523.534 184.182 455.033 184.182 455.033C184.182 455.033 196.609 429.065 217.912 455.033C239.215 481 240.99 498.909 240.99 498.909L268.507 552.636L268.507 609.944Z" fill="#2F2E41"/>
<path d="M135.363 412.052L106.959 402.202C106.959 402.202 80.3301 382.502 86.5435 402.202C92.7569 421.902 121.161 464.883 129.15 460.405C137.138 455.928 146.746 444.815 144.605 443.208C142.464 441.601 128.262 429.96 135.363 412.052Z" fill="#2F2E41"/>
<path d="M138.796 579.585L115.867 590.881C115.867 590.881 88.1389 595.185 103.603 603.254C119.067 611.323 161.725 619.93 163.858 612.399C165.991 604.868 165.145 592.369 162.902 592.701C160.659 593.033 145.195 594.647 138.796 579.585Z" fill="#2F2E41"/>
<path d="M256.968 550.845C256.968 550.845 245.428 600.989 264.956 611.735C284.484 622.48 421.178 624.271 431.83 604.571C442.481 584.871 437.156 584.871 437.156 584.871L408.752 552.636L431.83 550.845C431.83 550.845 431.83 543.681 423.841 542.786C415.853 541.89 390.999 532.936 369.696 539.204C348.393 545.472 335.966 526.668 335.966 526.668L256.968 550.845Z" fill="#575A89"/>
<path d="M241.878 394.143L226.788 477.419L330.641 464.883L349.281 389.666L241.878 394.143Z" fill="#3F3D56"/>
<path d="M244.985 397.277L232.558 471.598L327.09 460.406L345.286 392.8L244.985 397.277Z" fill="white"/>
<path d="M230.339 478.314L226.788 477.419L225.013 481L253.417 560.695L256.088 559.664L256.967 554.427L230.339 478.314Z" fill="#B3B3B3"/>
<path d="M226.788 476.523L255.192 559.799L362.595 543.681L330.641 464.883L226.788 476.523Z" fill="#D0CDE1"/>
<path d="M240.991 473.837V478.314L319.989 469.36L319.101 464.883L240.991 473.837Z" fill="#3F3D56"/>
<path d="M242.766 482.792L255.192 517.714L335.966 507.864L321.765 474.732L242.766 482.792Z" fill="#3F3D56"/>
<path d="M343.955 532.041L341.292 524.877C341.292 524.877 320.877 489.059 310.225 496.223C299.574 503.386 332.416 538.309 332.416 538.309H343.067L343.955 532.041Z" fill="#A0616A"/>
<path d="M276.495 537.413L273.832 526.668C273.832 526.668 266.731 493.537 279.158 495.328C291.585 497.118 295.135 528.459 295.135 528.459L294.248 535.622L276.495 537.413Z" fill="#A0616A"/>
<path d="M297.798 532.936C297.798 532.936 274.72 529.354 273.832 534.727C272.945 540.1 268.507 620.689 290.697 623.375C312.888 626.062 422.954 637.702 411.414 609.944C399.875 582.185 382.123 585.767 382.123 585.767L306.675 593.826L297.798 532.936Z" fill="#575A89"/>
<path d="M367.477 543.234L343.955 526.668L328.421 538.756L347.949 560.247L367.477 543.234Z" fill="#575A89"/>
<path opacity="0.2" d="M304.456 559.352L308.006 593.379L369.252 589.797L315.994 588.901L304.456 559.352Z" fill="black"/>
<path d="M486.625 598.869C511.136 598.869 531.006 578.823 531.006 554.097C531.006 529.37 511.136 509.325 486.625 509.325C462.114 509.325 442.244 529.37 442.244 554.097C442.244 578.823 462.114 598.869 486.625 598.869Z" fill="#2F2E41"/>
<path d="M258.299 423.245L313.332 421.312L318.658 400.859L261.85 402.588L258.299 423.245Z" fill="#5B86E5"/>
<path d="M244.098 434.886L327.534 432.199L328.421 428.617L244.985 431.581L244.098 434.886Z" fill="#E6E6E6"/>
<path d="M242.322 443.84L325.759 441.153L326.646 437.571L243.209 440.535L242.322 443.84Z" fill="#E6E6E6"/>
<path d="M241.434 451.003L324.871 448.317L325.759 444.735L242.322 447.698L241.434 451.003Z" fill="#E6E6E6"/>
</svg>
